<?xml version="1.0" encoding="utf-8"?>
<!-- Generator: Adobe Illustrator 23.0.0, SVG Export Plug-In . SVG Version: 6.00 Build 0)  -->
<svg version="1.1" id="Capa_1" xmlns="http://www.w3.org/2000/svg" xmlns:xlink="http://www.w3.org/1999/xlink" x="0px" y="0px"
	 viewBox="0 0 103.5 103.5" style="enable-background:new 0 0 103.5 103.5;" xml:space="preserve">
<style type="text/css">
	.st0{fill:#2196F3;stroke:#FDFEFF;stroke-miterlimit:10;}
</style>
<g>
	<g>
		<path class="st0" d="M82.1,4.7l-8.5,22.1H31.4L21.3,4.3c-1.7-3.7-6-5.3-9.7-3.6s-5.3,6-3.6,9.7l40.2,88.9c1.2,2.6,3.8,4.3,6.7,4.3
			c0.1,0,0.1,0,0.2,0c2.9-0.1,5.6-1.9,6.6-4.7l34-89c1.4-3.8-0.4-8-4.2-9.4C87.8-1,83.5,0.9,82.1,4.7z M54.3,77.3L38.1,41.4h30
			L54.3,77.3z"/>
	</g>
</g>
</svg>
